# xmcd
#
# Track frame offsets:
#	150
#	23505
#	39577
#	60205
#	76055
#	103960
#	117977
#	136950
#	148290
#	164187
#	186377
#	208817
#	259392
#
# Disc length: 3902 seconds
#
# Revision: 1
# Processed by: cddbd v1.4PL0 Copyright (c) Steve Scherf et al.
# Submitted via: audiograbber 1.81.03
#
DISCID=c20f3c0d
DTITLE=Paul Lamb and The King Snakes - Live At The 100 Club
DYEAR=2002
DGENRE=Blues
TTITLE0=Mad About My Baby
TTITLE1=No Glue In The World
TTITLE2=Livin' My Life Without Her
TTITLE3=More Than Alright
TTITLE4=Whitehill's Walk (Instrumental)
TTITLE5=To Keep A Woman
TTITLE6=The Pillow
TTITLE7=I'm Going Down
TTITLE8=Hootin' And Screamin'
TTITLE9=She's Crazy
TTITLE10=The Good Stuff
TTITLE11=Open Up
TTITLE12=Makes You Feel Good
EXTD=
EXTT0=
EXTT1=
EXTT2=
EXTT3=
EXTT4=
EXTT5=
EXTT6=
EXTT7=
EXTT8=
EXTT9=
EXTT10=
EXTT11=
EXTT12=
PLAYORDER=
